<svg xmlns="http://www.w3.org/2000/svg" viewBox="0 0 290 160">
  <defs>
    <linearGradient id="pbg" x1="0" y1="0" x2="1" y2="1">
      <stop offset="0%" stop-color="#06081e"/>
      <stop offset="100%" stop-color="#04061a"/>
    </linearGradient>
  </defs>
  <rect width="290" height="160" fill="url(#pbg)"/>
  <rect width="290" height="30" fill="rgba(8,10,30,0.95)"/>
  <rect y="29.5" width="290" height="0.5" fill="#7c6fff" opacity="0.25"/>
  <text x="12" y="19" font-family="monospace" font-size="9" fill="#7c6fff" font-weight="bold">PropAdmin</text>
  <text x="90" y="19" font-family="monospace" font-size="6.5" fill="rgba(140,120,255,0.3)">· Propiedades · Inquilinos · Ingresos</text>
  <rect width="108" height="130" y="30" fill="rgba(6,8,22,0.85)"/>
  <rect x="107.5" y="30" width="0.5" height="130" fill="rgba(124,111,255,0.1)"/>
  <text x="10" y="44" font-family="monospace" font-size="5.5" fill="rgba(140,120,255,0.4)" letter-spacing="1">PROPIEDADES</text>
  <rect x="6" y="48" width="96" height="22" rx="2" fill="rgba(124,111,255,0.12)" stroke="rgba(124,111,255,0.3)" stroke-width="0.5"/>
  <text x="12" y="58" font-family="monospace" font-size="6.5" fill="rgba(200,190,255,0.85)">Av. 7 #1420 · 3A</text>
  <text x="12" y="67" font-family="monospace" font-size="5.5" fill="rgba(140,120,255,0.45)">Alquilada · $280k</text>
  <rect x="6" y="74" width="96" height="22" rx="2" fill="rgba(124,111,255,0.04)"/>
  <text x="12" y="84" font-family="monospace" font-size="6.5" fill="rgba(200,190,255,0.5)">Calle 50 #820 · 2B</text>
  <text x="12" y="93" font-family="monospace" font-size="5.5" fill="rgba(140,120,255,0.3)">Alquilada · $195k</text>
  <rect x="6" y="100" width="96" height="22" rx="2" fill="rgba(124,111,255,0.04)"/>
  <text x="12" y="110" font-family="monospace" font-size="6.5" fill="rgba(200,190,255,0.5)">Diag. 74 #305 · PH</text>
  <text x="12" y="119" font-family="monospace" font-size="5.5" fill="rgba(80,200,120,0.5)">Disponible</text>
  <rect x="6" y="126" width="96" height="22" rx="2" fill="rgba(124,111,255,0.04)"/>
  <text x="12" y="136" font-family="monospace" font-size="6.5" fill="rgba(200,190,255,0.5)">Calle 13 #2240 · 1C</text>
  <text x="12" y="145" font-family="monospace" font-size="5.5" fill="rgba(140,120,255,0.3)">Alquilada · $220k</text>
  <rect x="112" y="36" width="170" height="50" rx="2" fill="rgba(124,111,255,0.05)" stroke="rgba(124,111,255,0.15)" stroke-width="0.5"/>
  <rect x="120" y="42" width="16" height="20" fill="rgba(124,111,255,0.25)" rx="1"/>
  <rect x="122" y="44" width="4" height="4" fill="rgba(200,190,255,0.3)" rx="0.5"/>
  <rect x="128" y="44" width="4" height="4" fill="rgba(200,190,255,0.3)" rx="0.5"/>
  <rect x="122" y="50" width="4" height="4" fill="rgba(200,190,255,0.3)" rx="0.5"/>
  <rect x="128" y="50" width="4" height="4" fill="rgba(200,190,255,0.3)" rx="0.5"/>
  <rect x="124" y="56" width="8" height="6" fill="rgba(124,111,255,0.35)" rx="0.5"/>
  <text x="142" y="50" font-family="monospace" font-size="9" fill="rgba(200,190,255,0.85)" font-weight="bold">Av. 7 #1420 · 3A</text>
  <text x="142" y="62" font-family="monospace" font-size="6" fill="rgba(140,120,255,0.45)">3 amb. · 72m2 · La Plata Centro</text>
  <text x="142" y="74" font-family="monospace" font-size="6" fill="#7c6fff">$280.000 / mes</text>
  <rect x="112" y="92" width="80" height="36" rx="2" fill="rgba(124,111,255,0.04)" stroke="rgba(124,111,255,0.12)" stroke-width="0.5"/>
  <text x="118" y="104" font-family="monospace" font-size="5.5" fill="rgba(140,120,255,0.38)">INQUILINO</text>
  <text x="118" y="116" font-family="monospace" font-size="7" fill="rgba(200,190,255,0.7)">Martinez, F.</text>
  <text x="118" y="124" font-family="monospace" font-size="5.5" fill="rgba(140,120,255,0.4)">Desde: Mar 2024</text>
  <rect x="198" y="92" width="84" height="36" rx="2" fill="rgba(80,200,120,0.04)" stroke="rgba(80,200,120,0.12)" stroke-width="0.5"/>
  <text x="204" y="104" font-family="monospace" font-size="5.5" fill="rgba(80,200,120,0.4)">PROX. PAGO</text>
  <text x="204" y="116" font-family="monospace" font-size="9" fill="rgba(80,200,120,0.75)" font-weight="bold">5 dias</text>
  <text x="204" y="124" font-family="monospace" font-size="5.5" fill="rgba(80,200,120,0.35)">01/04/2026</text>
  <rect x="112" y="134" width="170" height="18" rx="1.5" fill="rgba(124,111,255,0.04)" stroke="rgba(124,111,255,0.1)" stroke-width="0.5"/>
  <text x="118" y="141" font-family="monospace" font-size="5" fill="rgba(140,120,255,0.35)">INGRESOS MENSUALES</text>
  <rect x="118" y="143" width="22" height="5" rx="1" fill="#7c6fff" opacity="0.5"/>
  <rect x="142" y="141" width="22" height="7" rx="1" fill="#7c6fff" opacity="0.55"/>
  <rect x="166" y="140" width="22" height="8" rx="1" fill="#7c6fff" opacity="0.65"/>
  <rect x="190" y="138" width="22" height="10" rx="1" fill="#7c6fff" opacity="0.8"/>
  <rect x="214" y="136" width="22" height="12" rx="1" fill="#9c8fff" opacity="0.9"/>
  <rect x="238" y="137" width="22" height="11" rx="1" fill="#7c6fff" opacity="0.75"/>
</svg>
